<svg width="534" height="123" viewBox="0 0 534 123" fill="none" xmlns="http://www.w3.org/2000/svg">
<rect x="0.5" y="0.5" width="218" height="122" rx="1.5" stroke="url(#paint0_linear_6_451)"/>
<g clip-path="url(#clip0_6_451)">
<path d="M22 17.3333H22.0067" stroke="black"/>
<path d="M14 16C14 15.4696 14.2107 14.9609 14.5858 14.5858C14.9609 14.2107 15.4696 14 16 14H24C24.5304 14 25.0391 14.2107 25.4142 14.5858C25.7893 14.9609 26 15.4696 26 16V24C26 24.5304 25.7893 25.0391 25.4142 25.4142C25.0391 25.7893 24.5304 26 24 26H16C15.4696 26 14.9609 25.7893 14.5858 25.4142C14.2107 25.0391 14 24.5304 14 24V16Z" stroke="black"/>
<path d="M14 22.6667L17.3333 19.3333C17.952 18.738 18.7147 18.738 19.3333 19.3333L22.6667 22.6667" stroke="black"/>
<path d="M21.3333 21.3333L22 20.6667C22.6186 20.0713 23.3813 20.0713 24 20.6667L26 22.6667" stroke="black"/>
</g>
<path d="M33.104 24.5V15.98H34.136V24.5H33.104ZM36.0186 24.5V18.14H36.9426L36.9666 19.256C37.2786 18.476 37.9386 17.996 38.7546 17.996C39.7146 17.996 40.3866 18.476 40.6626 19.328C40.9386 18.476 41.5866 17.996 42.5226 17.996C43.8786 17.996 44.6226 18.872 44.6226 20.408V24.5H43.6146V20.624C43.6146 19.472 43.1586 18.884 42.2826 18.884C41.3946 18.884 40.8186 19.556 40.8186 20.696V24.5H39.8106V20.696C39.8106 19.568 39.4386 18.884 38.5026 18.884C37.6146 18.884 37.0266 19.568 37.0266 20.696V24.5H36.0186ZM48.1768 24.644C46.8568 24.644 46.0288 24.008 46.0288 22.916C46.0288 21.836 46.6408 21.236 48.0328 20.972L50.2888 20.552C50.2888 19.484 49.7848 18.956 48.7768 18.956C47.8888 18.956 47.3968 19.364 47.2048 20.096L46.1368 20.012C46.3768 18.812 47.3368 17.996 48.7768 17.996C50.4088 17.996 51.2968 18.98 51.2968 20.588V23.216C51.2968 23.504 51.3928 23.612 51.6328 23.612H51.8848V24.5C51.8128 24.512 51.6568 24.524 51.5008 24.524C50.7328 24.524 50.3848 24.224 50.3008 23.516C49.9888 24.176 49.1128 24.644 48.1768 24.644ZM48.2728 23.756C49.5448 23.756 50.2888 22.94 50.2888 21.884V21.428L48.2248 21.812C47.3608 21.968 47.0848 22.292 47.0848 22.82C47.0848 23.42 47.5288 23.756 48.2728 23.756ZM55.5994 26.444C54.2314 26.444 53.1994 25.712 52.9354 24.596L53.9914 24.524C54.1834 25.124 54.6154 25.484 55.5994 25.484C56.7514 25.484 57.3874 25.028 57.3874 24.092V23.06C57.0754 23.732 56.3554 24.164 55.5274 24.164C53.9074 24.164 52.7554 22.892 52.7554 21.08C52.7554 19.268 53.8834 17.996 55.4794 17.996C56.3674 17.996 57.1474 18.44 57.4354 19.148V18.14H58.3954V24.068C58.3954 25.556 57.3514 26.444 55.5994 26.444ZM55.5754 23.204C56.6674 23.204 57.3754 22.388 57.3874 21.08C57.4114 19.772 56.6794 18.956 55.5754 18.956C54.4594 18.956 53.8114 19.772 53.8114 21.08C53.8114 22.388 54.4834 23.204 55.5754 23.204ZM62.6558 24.644C60.8558 24.644 59.7398 23.336 59.7398 21.32C59.7398 19.304 60.8558 17.996 62.6078 17.996C64.2638 17.996 65.4158 19.196 65.4158 21.332V21.632H60.7958C60.8678 23 61.5518 23.684 62.6558 23.684C63.4838 23.684 64.0238 23.264 64.2398 22.616L65.3198 22.7C64.9838 23.84 63.9998 24.644 62.6558 24.644ZM64.3118 20.744C64.2158 19.52 63.5438 18.956 62.6078 18.956C61.6238 18.956 60.9638 19.568 60.7958 20.744H64.3118Z" fill="#1A1A1B"/>
<g clip-path="url(#clip1_6_451)">
<path d="M18.6667 44H21.3334" stroke="black"/>
<path d="M18 38.6667C18.5304 38.6667 19.0391 38.8774 19.4142 39.2525C19.7893 39.6275 20 40.1362 20 40.6667V47.3333C20 47.8638 19.7893 48.3725 19.4142 48.7476C19.0391 49.1226 18.5304 49.3333 18 49.3333" stroke="black"/>
<path d="M22 38.6667C21.4696 38.6667 20.9609 38.8774 20.5858 39.2525C20.2107 39.6275 20 40.1362 20 40.6667V47.3333C20 47.8638 20.2107 48.3725 20.5858 48.7476C20.9609 49.1226 21.4696 49.3333 22 49.3333" stroke="black"/>
</g>
<path d="M36.08 48.692C34.112 48.692 32.852 47.504 32.708 45.776L33.788 45.704C33.956 46.976 34.736 47.684 36.104 47.684C37.292 47.684 37.988 47.216 37.988 46.34C37.988 45.548 37.592 45.068 35.552 44.564C33.584 44.072 32.888 43.484 32.888 42.212C32.888 40.784 33.968 39.788 35.72 39.788C37.592 39.788 38.696 40.94 38.888 42.5L37.808 42.572C37.664 41.54 36.968 40.796 35.696 40.796C34.64 40.796 33.968 41.348 33.968 42.164C33.968 42.968 34.4 43.256 36.2 43.7C38.336 44.228 39.068 45.044 39.068 46.268C39.068 47.756 37.82 48.692 36.08 48.692ZM40.4366 48.5V42.14H41.4446V48.5H40.4366ZM40.4126 41.144V39.968H41.4686V41.144H40.4126ZM43.1905 48.5V42.14H44.1145L44.1385 43.28C44.4745 42.404 45.2185 41.996 46.0945 41.996C47.5465 41.996 48.2425 43.064 48.2425 44.408V48.5H47.2345V44.696C47.2345 43.52 46.8385 42.884 45.8785 42.884C44.8945 42.884 44.1985 43.52 44.1985 44.696V48.5H43.1905ZM52.4353 50.444C51.0673 50.444 50.0353 49.712 49.7713 48.596L50.8273 48.524C51.0193 49.124 51.4513 49.484 52.4353 49.484C53.5873 49.484 54.2233 49.028 54.2233 48.092V47.06C53.9113 47.732 53.1913 48.164 52.3633 48.164C50.7433 48.164 49.5913 46.892 49.5913 45.08C49.5913 43.268 50.7193 41.996 52.3153 41.996C53.2033 41.996 53.9833 42.44 54.2713 43.148V42.14H55.2313V48.068C55.2313 49.556 54.1873 50.444 52.4353 50.444ZM52.4113 47.204C53.5033 47.204 54.2113 46.388 54.2233 45.08C54.2473 43.772 53.5153 42.956 52.4113 42.956C51.2953 42.956 50.6473 43.772 50.6473 45.08C50.6473 46.388 51.3193 47.204 52.4113 47.204ZM58.4075 48.5C57.6635 48.5 57.1475 48.14 57.1475 47.3L57.1595 39.98H58.1675V47.216C58.1675 47.48 58.2995 47.612 58.5635 47.612H59.1155V48.5H58.4075ZM62.9605 48.644C61.1605 48.644 60.0445 47.336 60.0445 45.32C60.0445 43.304 61.1605 41.996 62.9125 41.996C64.5685 41.996 65.7205 43.196 65.7205 45.332V45.632H61.1005C61.1725 47 61.8565 47.684 62.9605 47.684C63.7885 47.684 64.3285 47.264 64.5445 46.616L65.6245 46.7C65.2885 47.84 64.3045 48.644 62.9605 48.644ZM64.6165 44.744C64.5205 43.52 63.8485 42.956 62.9125 42.956C61.9285 42.956 61.2685 43.568 61.1005 44.744H64.6165ZM70.3931 48.5V39.98H71.4251V47.492H75.6851V48.5H70.3931ZM77.21 48.5V42.14H78.218V48.5H77.21ZM77.186 41.144V39.968H78.242V41.144H77.186ZM79.9639 48.5V42.14H80.8879L80.9119 43.28C81.2479 42.404 81.9919 41.996 82.8679 41.996C84.3199 41.996 85.0159 43.064 85.0159 44.408V48.5H84.0079V44.696C84.0079 43.52 83.6119 42.884 82.6519 42.884C81.6679 42.884 80.9719 43.52 80.9719 44.696V48.5H79.9639ZM89.2808 48.644C87.4808 48.644 86.3648 47.336 86.3648 45.32C86.3648 43.304 87.4808 41.996 89.2328 41.996C90.8888 41.996 92.0408 43.196 92.0408 45.332V45.632H87.4208C87.4928 47 88.1768 47.684 89.2808 47.684C90.1088 47.684 90.6488 47.264 90.8648 46.616L91.9448 46.7C91.6088 47.84 90.6248 48.644 89.2808 48.644ZM90.9368 44.744C90.8408 43.52 90.1688 42.956 89.2328 42.956C88.2488 42.956 87.5888 43.568 87.4208 44.744H90.9368Z" fill="#1A1A1B"/>
<g clip-path="url(#clip2_6_451)">
<path d="M14.6667 64H25.3334" stroke="black"/>
<path d="M14.6667 72H18" stroke="black"/>
<path d="M14.6667 68H23.3334C23.8638 68 24.3725 68.2107 24.7476 68.5858C25.1226 68.9609 25.3334 69.4696 25.3334 70C25.3334 70.5304 25.1226 71.0391 24.7476 71.4142C24.3725 71.7893 23.8638 72 23.3334 72H20.6667M20.6667 72L22 70.6667M20.6667 72L22 73.3333" stroke="black"/>
</g>
<path d="M33.104 72.5V63.98H34.544L37.268 71.372L39.98 63.98H41.42V72.5H40.388V65.9L37.952 72.5H36.572L34.136 65.9V72.5H33.104ZM45.3371 72.644C44.0651 72.644 43.2491 71.744 43.2491 70.232V66.14H44.2571V69.956C44.2571 71.192 44.6891 71.756 45.6011 71.756C46.6091 71.756 47.2211 71.072 47.2211 69.932V66.14H48.2291V72.5H47.2691V71.468C46.9211 72.224 46.2491 72.644 45.3371 72.644ZM51.4114 72.5C50.6674 72.5 50.1514 72.14 50.1514 71.3L50.1634 63.98H51.1714V71.216C51.1714 71.48 51.3034 71.612 51.5674 71.612H52.1194V72.5H51.4114ZM55.2919 72.5C54.1399 72.5 53.5999 71.996 53.5999 70.868V67.028H52.6639V66.14H53.5999V64.652H54.6079V66.14H56.2999V67.028H54.6079V70.844C54.6079 71.42 54.8599 71.612 55.3879 71.612H56.2999V72.5H55.2919ZM57.6983 72.5V66.14H58.7063V72.5H57.6983ZM57.6743 65.144V63.968H58.7303V65.144H57.6743ZM61.888 72.5C61.144 72.5 60.628 72.14 60.628 71.3L60.64 63.98H61.648V71.216C61.648 71.48 61.78 71.612 62.044 71.612H62.596V72.5H61.888ZM64.0381 72.5V66.14H65.0461V72.5H64.0381ZM64.0141 65.144V63.968H65.0701V65.144H64.0141ZM66.792 72.5V66.14H67.716L67.74 67.28C68.076 66.404 68.82 65.996 69.696 65.996C71.148 65.996 71.844 67.064 71.844 68.408V72.5H70.836V68.696C70.836 67.52 70.44 66.884 69.48 66.884C68.496 66.884 67.8 67.52 67.8 68.696V72.5H66.792ZM76.1089 72.644C74.3089 72.644 73.1929 71.336 73.1929 69.32C73.1929 67.304 74.3089 65.996 76.0609 65.996C77.7169 65.996 78.8689 67.196 78.8689 69.332V69.632H74.2489C74.3209 71 75.0049 71.684 76.1089 71.684C76.9369 71.684 77.4769 71.264 77.6929 70.616L78.7729 70.7C78.4369 71.84 77.4529 72.644 76.1089 72.644ZM77.7649 68.744C77.6689 67.52 76.9969 66.956 76.0609 66.956C75.0769 66.956 74.4169 67.568 74.2489 68.744H77.7649Z" fill="#1A1A1B"/>
<g clip-path="url(#clip3_6_451)">
<path d="M14.6667 95.3333V88.6667L19.3334 95.3333V88.6667" stroke="black"/>
<path d="M22 95.3333H25.3333" stroke="black"/>
<path d="M22 90.6667C22 91.1971 22.1756 91.7058 22.4882 92.0809C22.8007 92.4559 23.2246 92.6667 23.6667 92.6667C24.1087 92.6667 24.5326 92.4559 24.8452 92.0809C25.1577 91.7058 25.3333 91.1971 25.3333 90.6667C25.3333 90.1362 25.1577 89.6275 24.8452 89.2524C24.5326 88.8774 24.1087 88.6667 23.6667 88.6667C23.2246 88.6667 22.8007 88.8774 22.4882 89.2524C22.1756 89.6275 22 90.1362 22 90.6667Z" stroke="black"/>
</g>
<path d="M33.104 96.5V87.98H34.568L38.78 95.468V87.98H39.812V96.5H38.276L34.136 89.156V96.5H33.104ZM43.7316 96.644C42.4596 96.644 41.6436 95.744 41.6436 94.232V90.14H42.6516V93.956C42.6516 95.192 43.0836 95.756 43.9956 95.756C45.0036 95.756 45.6156 95.072 45.6156 93.932V90.14H46.6236V96.5H45.6636V95.468C45.3156 96.224 44.6436 96.644 43.7316 96.644ZM48.5459 96.5V90.14H49.4699L49.4939 91.256C49.8059 90.476 50.4659 89.996 51.2819 89.996C52.2419 89.996 52.9139 90.476 53.1899 91.328C53.4659 90.476 54.1139 89.996 55.0499 89.996C56.4059 89.996 57.1499 90.872 57.1499 92.408V96.5H56.1419V92.624C56.1419 91.472 55.6859 90.884 54.8099 90.884C53.9219 90.884 53.3459 91.556 53.3459 92.696V96.5H52.3379V92.696C52.3379 91.568 51.9659 90.884 51.0299 90.884C50.1419 90.884 49.5539 91.568 49.5539 92.696V96.5H48.5459ZM61.9854 96.644C61.0974 96.644 60.3774 96.236 60.0174 95.54L59.9814 96.5H59.0694V87.98H60.0774V91.028C60.3894 90.5 61.0974 89.996 61.9854 89.996C63.6654 89.996 64.7214 91.28 64.7214 93.32C64.7214 95.36 63.6654 96.644 61.9854 96.644ZM61.9254 95.684C62.9934 95.684 63.6654 94.772 63.6654 93.32C63.6654 91.844 62.9934 90.956 61.9494 90.956C60.7734 90.956 60.0774 91.844 60.0774 93.32C60.0774 94.772 60.7734 95.684 61.9254 95.684ZM68.7027 96.644C66.9027 96.644 65.7867 95.336 65.7867 93.32C65.7867 91.304 66.9027 89.996 68.6547 89.996C70.3107 89.996 71.4627 91.196 71.4627 93.332V93.632H66.8427C66.9147 95 67.5987 95.684 68.7027 95.684C69.5307 95.684 70.0707 95.264 70.2867 94.616L71.3667 94.7C71.0307 95.84 70.0467 96.644 68.7027 96.644ZM70.3587 92.744C70.2627 91.52 69.5907 90.956 68.6547 90.956C67.6707 90.956 67.0107 91.568 66.8427 92.744H70.3587ZM72.9327 96.5V90.14H73.8207L73.8567 91.316C74.0847 90.512 74.5887 90.14 75.3687 90.14H75.9927V91.1H75.3807C74.4207 91.1 73.9407 91.616 73.9407 92.66V96.5H72.9327Z" fill="#1A1A1B"/>
<rect x="244.5" y="0.5" width="289" height="122" rx="5.5" stroke="url(#paint1_linear_6_451)"/>
<path d="M257.032 24V15.48H262.564V16.668H258.328V19.26H262.348V20.412H258.328V24H257.032ZM264.037 24V17.616H265.309V24H264.037ZM264.013 16.692V15.42H265.345V16.692H264.013ZM266.943 24V17.616H268.107L268.143 18.828C268.383 17.988 268.875 17.616 269.667 17.616H270.279V18.756H269.667C268.695 18.756 268.215 19.224 268.215 20.232V24H266.943ZM273.822 24.144C272.022 24.144 271.05 23.244 270.954 21.984L272.274 21.924C272.382 22.632 272.838 23.076 273.822 23.076C274.614 23.076 275.118 22.836 275.118 22.272C275.118 21.804 274.878 21.6 273.594 21.384C271.698 21.048 271.11 20.496 271.11 19.452C271.11 18.288 272.01 17.472 273.666 17.472C275.298 17.472 276.162 18.408 276.342 19.572L275.034 19.644C274.914 18.984 274.446 18.54 273.654 18.54C272.826 18.54 272.43 18.9 272.43 19.404C272.43 19.968 272.814 20.196 273.858 20.364C275.838 20.688 276.438 21.216 276.438 22.26C276.438 23.46 275.346 24.144 273.822 24.144ZM279.961 24C278.749 24 278.185 23.472 278.185 22.272V18.66H277.213V17.616H278.185V16.116H279.457V17.616H281.149V18.66H279.457V22.176C279.457 22.776 279.709 22.956 280.237 22.956H281.149V24H279.961ZM285.509 24V15.48H287.153L291.089 22.428V15.48H292.385V24H290.681L286.805 17.208V24H285.509ZM296.13 24.144C294.81 24.144 293.946 23.508 293.946 22.404C293.946 21.312 294.594 20.724 295.986 20.448L298.182 20.028C298.182 19.044 297.726 18.552 296.814 18.552C295.998 18.552 295.542 18.924 295.374 19.62L294.054 19.536C294.294 18.264 295.29 17.472 296.814 17.472C298.542 17.472 299.454 18.444 299.454 20.1V22.584C299.454 22.896 299.562 22.992 299.802 22.992H300.03V24C299.946 24.024 299.742 24.036 299.562 24.036C298.83 24.036 298.398 23.76 298.29 23.016C297.966 23.688 297.126 24.144 296.13 24.144ZM296.346 23.136C297.486 23.136 298.182 22.416 298.182 21.396V20.988L296.322 21.348C295.554 21.492 295.266 21.792 295.266 22.284C295.266 22.836 295.662 23.136 296.346 23.136ZM301.279 24V17.616H302.443L302.467 18.72C302.779 17.94 303.439 17.472 304.243 17.472C305.191 17.472 305.851 17.964 306.127 18.792C306.415 17.94 307.063 17.472 307.975 17.472C309.319 17.472 310.087 18.336 310.087 19.896V24H308.815V20.208C308.815 19.104 308.419 18.54 307.603 18.54C306.799 18.54 306.283 19.176 306.283 20.256V24H305.071V20.256C305.071 19.176 304.735 18.54 303.883 18.54C303.067 18.54 302.551 19.188 302.551 20.256V24H301.279ZM314.384 24.144C312.536 24.144 311.36 22.824 311.36 20.808C311.36 18.792 312.536 17.472 314.348 17.472C316.088 17.472 317.276 18.708 317.276 20.856V21.18H312.692C312.752 22.428 313.388 23.052 314.396 23.052C315.152 23.052 315.656 22.68 315.86 22.08L317.18 22.164C316.844 23.352 315.8 24.144 314.384 24.144ZM315.92 20.22C315.848 19.092 315.224 18.552 314.348 18.552C313.448 18.552 312.836 19.14 312.692 20.22H315.92Z" fill="#3B3C3E"/>
<rect x="256.3" y="31.3" width="124.4" height="23.4" rx="3.7" stroke="#C5C5C5" stroke-width="0.6"/>
<path d="M398.032 24V15.48H399.328V22.812H403.48V24H398.032ZM406.708 24.144C405.388 24.144 404.524 23.508 404.524 22.404C404.524 21.312 405.172 20.724 406.564 20.448L408.76 20.028C408.76 19.044 408.304 18.552 407.392 18.552C406.576 18.552 406.12 18.924 405.952 19.62L404.632 19.536C404.872 18.264 405.868 17.472 407.392 17.472C409.12 17.472 410.032 18.444 410.032 20.1V22.584C410.032 22.896 410.14 22.992 410.38 22.992H410.608V24C410.524 24.024 410.32 24.036 410.14 24.036C409.408 24.036 408.976 23.76 408.868 23.016C408.544 23.688 407.704 24.144 406.708 24.144ZM406.924 23.136C408.064 23.136 408.76 22.416 408.76 21.396V20.988L406.9 21.348C406.132 21.492 405.844 21.792 405.844 22.284C405.844 22.836 406.24 23.136 406.924 23.136ZM414.294 24.144C412.494 24.144 411.522 23.244 411.426 21.984L412.746 21.924C412.854 22.632 413.31 23.076 414.294 23.076C415.086 23.076 415.59 22.836 415.59 22.272C415.59 21.804 415.35 21.6 414.066 21.384C412.17 21.048 411.582 20.496 411.582 19.452C411.582 18.288 412.482 17.472 414.138 17.472C415.77 17.472 416.634 18.408 416.814 19.572L415.506 19.644C415.386 18.984 414.918 18.54 414.126 18.54C413.298 18.54 412.902 18.9 412.902 19.404C412.902 19.968 413.286 20.196 414.33 20.364C416.31 20.688 416.91 21.216 416.91 22.26C416.91 23.46 415.818 24.144 414.294 24.144ZM420.434 24C419.222 24 418.658 23.472 418.658 22.272V18.66H417.686V17.616H418.658V16.116H419.93V17.616H421.622V18.66H419.93V22.176C419.93 22.776 420.182 22.956 420.71 22.956H421.622V24H420.434ZM425.981 24V15.48H427.625L431.561 22.428V15.48H432.857V24H431.153L427.277 17.208V24H425.981ZM436.603 24.144C435.283 24.144 434.419 23.508 434.419 22.404C434.419 21.312 435.067 20.724 436.459 20.448L438.655 20.028C438.655 19.044 438.199 18.552 437.287 18.552C436.471 18.552 436.015 18.924 435.847 19.62L434.527 19.536C434.767 18.264 435.763 17.472 437.287 17.472C439.015 17.472 439.927 18.444 439.927 20.1V22.584C439.927 22.896 440.035 22.992 440.275 22.992H440.503V24C440.419 24.024 440.215 24.036 440.035 24.036C439.303 24.036 438.871 23.76 438.763 23.016C438.439 23.688 437.599 24.144 436.603 24.144ZM436.819 23.136C437.959 23.136 438.655 22.416 438.655 21.396V20.988L436.795 21.348C436.027 21.492 435.739 21.792 435.739 22.284C435.739 22.836 436.135 23.136 436.819 23.136ZM441.752 24V17.616H442.916L442.94 18.72C443.252 17.94 443.912 17.472 444.716 17.472C445.664 17.472 446.324 17.964 446.6 18.792C446.888 17.94 447.536 17.472 448.448 17.472C449.792 17.472 450.56 18.336 450.56 19.896V24H449.288V20.208C449.288 19.104 448.892 18.54 448.076 18.54C447.272 18.54 446.756 19.176 446.756 20.256V24H445.544V20.256C445.544 19.176 445.208 18.54 444.356 18.54C443.54 18.54 443.024 19.188 443.024 20.256V24H441.752ZM454.857 24.144C453.009 24.144 451.833 22.824 451.833 20.808C451.833 18.792 453.009 17.472 454.821 17.472C456.561 17.472 457.749 18.708 457.749 20.856V21.18H453.165C453.225 22.428 453.861 23.052 454.869 23.052C455.625 23.052 456.129 22.68 456.333 22.08L457.653 22.164C457.317 23.352 456.273 24.144 454.857 24.144ZM456.393 20.22C456.321 19.092 455.697 18.552 454.821 18.552C453.921 18.552 453.309 19.14 453.165 20.22H456.393Z" fill="#3B3C3E"/>
<rect x="397.3" y="31.3" width="124.4" height="23.4" rx="3.7" stroke="#C5C5C5" stroke-width="0.6"/>
<path d="M257.032 75V66.48H262.576V67.668H258.328V70.152H262.432V71.304H258.328V73.812H262.672V75H257.032ZM264.213 75V68.616H265.377L265.401 69.72C265.713 68.94 266.373 68.472 267.177 68.472C268.125 68.472 268.785 68.964 269.061 69.792C269.349 68.94 269.997 68.472 270.909 68.472C272.253 68.472 273.021 69.336 273.021 70.896V75H271.749V71.208C271.749 70.104 271.353 69.54 270.537 69.54C269.733 69.54 269.217 70.176 269.217 71.256V75H268.005V71.256C268.005 70.176 267.669 69.54 266.817 69.54C266.001 69.54 265.485 70.188 265.485 71.256V75H264.213ZM276.513 75.144C275.193 75.144 274.329 74.508 274.329 73.404C274.329 72.312 274.977 71.724 276.369 71.448L278.565 71.028C278.565 70.044 278.109 69.552 277.197 69.552C276.381 69.552 275.925 69.924 275.757 70.62L274.437 70.536C274.677 69.264 275.673 68.472 277.197 68.472C278.925 68.472 279.837 69.444 279.837 71.1V73.584C279.837 73.896 279.945 73.992 280.185 73.992H280.413V75C280.329 75.024 280.125 75.036 279.945 75.036C279.213 75.036 278.781 74.76 278.673 74.016C278.349 74.688 277.509 75.144 276.513 75.144ZM276.729 74.136C277.869 74.136 278.565 73.416 278.565 72.396V71.988L276.705 72.348C275.937 72.492 275.649 72.792 275.649 73.284C275.649 73.836 276.045 74.136 276.729 74.136ZM281.709 75V68.616H282.981V75H281.709ZM281.685 67.692V66.42H283.017V67.692H281.685ZM286.183 75C285.343 75 284.779 74.592 284.779 73.644L284.791 66.48H286.063V73.524C286.063 73.824 286.207 73.956 286.495 73.956H287.011V75H286.183ZM293.095 75.144C291.775 75.144 290.911 74.508 290.911 73.404C290.911 72.312 291.559 71.724 292.951 71.448L295.147 71.028C295.147 70.044 294.691 69.552 293.779 69.552C292.963 69.552 292.507 69.924 292.339 70.62L291.019 70.536C291.259 69.264 292.255 68.472 293.779 68.472C295.507 68.472 296.419 69.444 296.419 71.1V73.584C296.419 73.896 296.527 73.992 296.767 73.992H296.995V75C296.911 75.024 296.707 75.036 296.527 75.036C295.795 75.036 295.363 74.76 295.255 74.016C294.931 74.688 294.091 75.144 293.095 75.144ZM293.311 74.136C294.451 74.136 295.147 73.416 295.147 72.396V71.988L293.287 72.348C292.519 72.492 292.231 72.792 292.231 73.284C292.231 73.836 292.627 74.136 293.311 74.136ZM300.489 75.144C298.845 75.144 297.813 73.86 297.813 71.808C297.813 69.768 298.845 68.472 300.489 68.472C301.365 68.472 302.097 68.856 302.433 69.516V66.48H303.705V75H302.529L302.493 74.04C302.133 74.736 301.377 75.144 300.489 75.144ZM300.825 74.04C301.857 74.04 302.433 73.212 302.433 71.808C302.433 70.392 301.857 69.576 300.825 69.576C299.793 69.576 299.133 70.416 299.133 71.808C299.133 73.176 299.805 74.04 300.825 74.04ZM307.813 75.144C306.169 75.144 305.137 73.86 305.137 71.808C305.137 69.768 306.169 68.472 307.813 68.472C308.689 68.472 309.421 68.856 309.757 69.516V66.48H311.029V75H309.853L309.817 74.04C309.457 74.736 308.701 75.144 307.813 75.144ZM308.149 74.04C309.181 74.04 309.757 73.212 309.757 71.808C309.757 70.392 309.181 69.576 308.149 69.576C307.117 69.576 306.457 70.416 306.457 71.808C306.457 73.176 307.129 74.04 308.149 74.04ZM312.681 75V68.616H313.845L313.881 69.828C314.121 68.988 314.613 68.616 315.405 68.616H316.017V69.756H315.405C314.433 69.756 313.953 70.224 313.953 71.232V75H312.681ZM319.716 75.144C317.868 75.144 316.692 73.824 316.692 71.808C316.692 69.792 317.868 68.472 319.68 68.472C321.42 68.472 322.608 69.708 322.608 71.856V72.18H318.024C318.084 73.428 318.72 74.052 319.728 74.052C320.484 74.052 320.988 73.68 321.192 73.08L322.512 73.164C322.176 74.352 321.132 75.144 319.716 75.144ZM321.252 71.22C321.18 70.092 320.556 69.552 319.68 69.552C318.78 69.552 318.168 70.14 318.024 71.22H321.252ZM326.462 75.144C324.662 75.144 323.69 74.244 323.594 72.984L324.914 72.924C325.022 73.632 325.478 74.076 326.462 74.076C327.254 74.076 327.758 73.836 327.758 73.272C327.758 72.804 327.518 72.6 326.234 72.384C324.338 72.048 323.75 71.496 323.75 70.452C323.75 69.288 324.65 68.472 326.306 68.472C327.938 68.472 328.802 69.408 328.982 70.572L327.674 70.644C327.554 69.984 327.086 69.54 326.294 69.54C325.466 69.54 325.07 69.9 325.07 70.404C325.07 70.968 325.454 71.196 326.498 71.364C328.478 71.688 329.078 72.216 329.078 73.26C329.078 74.46 327.986 75.144 326.462 75.144ZM332.931 75.144C331.131 75.144 330.159 74.244 330.063 72.984L331.383 72.924C331.491 73.632 331.947 74.076 332.931 74.076C333.723 74.076 334.227 73.836 334.227 73.272C334.227 72.804 333.987 72.6 332.703 72.384C330.807 72.048 330.219 71.496 330.219 70.452C330.219 69.288 331.119 68.472 332.775 68.472C334.407 68.472 335.271 69.408 335.451 70.572L334.143 70.644C334.023 69.984 333.555 69.54 332.763 69.54C331.935 69.54 331.539 69.9 331.539 70.404C331.539 70.968 331.923 71.196 332.967 71.364C334.947 71.688 335.547 72.216 335.547 73.26C335.547 74.46 334.455 75.144 332.931 75.144Z" fill="#3B3C3E"/>
<rect x="256.3" y="82.3" width="265.4" height="23.4" rx="3.7" stroke="#C5C5C5" stroke-width="0.6"/>
<g filter="url(#filter0_d_6_451)">
<g clip-path="url(#clip4_6_451)">
<rect x="185.035" y="9.69054" width="195" height="28" rx="3" transform="rotate(8.28583 185.035 9.69054)" fill="white"/>
<g clip-path="url(#clip5_6_451)">
<path d="M199.235 23.2113L199.241 23.2123" stroke="black"/>
<path d="M191.51 20.739C191.587 20.2141 191.869 19.7411 192.294 19.424C192.719 19.1069 193.253 18.9717 193.778 19.0481L201.694 20.201C202.219 20.2775 202.692 20.5593 203.009 20.9845C203.326 21.4097 203.462 21.9435 203.385 22.4684L202.232 30.3849C202.156 30.9098 201.874 31.3828 201.449 31.6999C201.024 32.017 200.49 32.1522 199.965 32.0758L192.048 30.9229C191.524 30.8464 191.051 30.5646 190.733 30.1394C190.416 29.7142 190.281 29.1804 190.358 28.6555L191.51 20.739Z" stroke="black"/>
<path d="M190.55 27.3361L194.329 24.5179C195.027 24.018 195.781 24.1279 196.308 24.8062L199.126 28.5851" stroke="black"/>
<path d="M197.999 27.0735L198.754 26.5099C199.452 26.0099 200.207 26.1198 200.734 26.7981L202.424 29.0655" stroke="black"/>
</g>
<path d="M209.19 31.9034L210.418 23.4724L211.439 23.6211L210.211 32.0521L209.19 31.9034ZM212.074 32.3234L212.991 26.0298L213.905 26.163L213.768 27.2708C214.189 26.5439 214.912 26.164 215.719 26.2816C216.669 26.42 217.265 26.9918 217.415 27.8747C217.811 27.0714 218.522 26.6898 219.448 26.8246C220.79 27.0201 221.4 27.9941 221.178 29.5141L220.589 33.5634L219.591 33.4181L220.15 29.5826C220.316 28.4426 219.949 27.795 219.082 27.6688C218.204 27.5408 217.537 28.1228 217.372 29.2509L216.824 33.0152L215.827 32.8699L216.375 29.1056C216.538 27.9894 216.268 27.2589 215.342 27.124C214.463 26.9961 213.783 27.5882 213.62 28.7044L213.072 32.4687L212.074 32.3234ZM224.085 34.2181C222.779 34.0279 222.051 33.2792 222.208 32.1986C222.364 31.1298 223.056 30.6243 224.472 30.5637L226.765 30.4732C226.918 29.4163 226.496 28.8212 225.498 28.6759C224.62 28.548 224.074 28.8808 223.778 29.5775L222.734 29.3404C223.144 28.1876 224.212 27.5184 225.637 27.7259C227.252 27.9611 227.989 29.0628 227.757 30.6541L227.378 33.2546C227.337 33.5396 227.416 33.6603 227.654 33.6949L227.903 33.7312L227.775 34.61C227.702 34.6115 227.546 34.6008 227.392 34.5784C226.632 34.4677 226.33 34.1207 226.349 33.408C225.945 34.0161 225.011 34.353 224.085 34.2181ZM224.308 33.3532C225.567 33.5365 226.42 32.8362 226.573 31.7913L226.638 31.34L224.541 31.4226C223.663 31.4524 223.343 31.7333 223.267 32.2558C223.181 32.8495 223.572 33.246 224.308 33.3532ZM231.171 37.069C229.817 36.8718 228.901 35.9987 228.801 34.8564L229.856 34.9373C229.96 35.5587 230.335 35.9772 231.309 36.119C232.449 36.285 233.144 35.9254 233.279 34.9992L233.428 33.978C233.022 34.598 232.247 34.9217 231.428 34.8024C229.825 34.5689 228.868 33.1442 229.129 31.3511C229.39 29.558 230.69 28.4619 232.269 28.6919C233.148 28.8198 233.856 29.3716 234.039 30.1137L234.184 29.1162L235.134 29.2546L234.28 35.1207C234.065 36.5932 232.904 37.3215 231.171 37.069ZM231.614 33.8593C232.694 34.0167 233.513 33.3113 233.713 32.0186C233.925 30.7277 233.318 29.8148 232.226 29.6557C231.122 29.4948 230.363 30.2089 230.174 31.5033C229.986 32.7976 230.533 33.702 231.614 33.8593ZM238.413 36.3047C236.632 36.0453 235.716 34.5901 236.006 32.5951C236.297 30.6002 237.59 29.4667 239.323 29.7191C240.962 29.9578 241.929 31.3113 241.621 33.425L241.578 33.7219L237.006 33.0561C236.88 34.4202 237.459 35.1956 238.551 35.3547C239.37 35.474 239.965 35.1362 240.272 34.5261L241.329 34.7649C240.832 35.8446 239.743 36.4984 238.413 36.3047ZM240.613 32.684C240.695 31.459 240.111 30.804 239.185 30.6691C238.211 30.5273 237.47 31.0378 237.134 32.1773L240.613 32.684Z" fill="#1A1A1B"/>
</g>
<rect x="185.458" y="10.2574" width="194" height="27" rx="2.5" transform="rotate(8.28583 185.458 10.2574)" stroke="#2260FF"/>
</g>
<path d="M276.597 40.8538C277.457 41.0014 278.102 41.652 278.287 42.4515C278.625 42.3231 279.002 42.2809 279.385 42.3466C280.528 42.5427 281.295 43.6278 281.099 44.7709L280.913 45.8576C281.204 45.7758 281.517 45.7561 281.834 45.8105C282.977 46.0067 283.745 47.0918 283.549 48.2349L282.197 56.1197C281.627 59.4401 278.474 61.6698 275.154 61.1004L274.168 60.9314C272.337 60.6173 270.837 59.5161 269.957 58.0382C269.935 58.0109 269.912 57.9838 269.891 57.9555L265.753 52.4712C264.976 51.4413 265.133 49.9685 266.112 49.1262C267.071 48.3005 268.496 48.3639 269.374 49.2795L269.886 49.8111L270.877 44.0322C271.073 42.8891 272.159 42.1218 273.302 42.3179C273.619 42.3723 273.908 42.4945 274.154 42.6682L274.172 42.5681C274.368 41.425 275.454 40.6578 276.597 40.8538ZM276.394 42.0358C275.904 41.9518 275.439 42.2811 275.355 42.771L274.154 49.7684L272.972 49.5656L273.834 44.5393C273.918 44.0495 273.589 43.584 273.099 43.4999C272.609 43.4158 272.144 43.7452 272.06 44.2351L270.666 52.3596L270.529 52.2162L268.509 50.11C268.073 49.6565 267.373 49.6237 266.894 50.0352C266.396 50.4641 266.315 51.2222 266.712 51.7478L270.849 57.2321C270.876 57.2681 270.904 57.3029 270.933 57.3358L270.94 57.3438L270.945 57.3527C271.647 58.578 272.87 59.4921 274.371 59.7494L275.356 59.9185C278.023 60.3758 280.556 58.584 281.014 55.9168L282.366 48.032C282.45 47.5421 282.121 47.0766 281.632 46.9925C281.142 46.9085 280.676 47.2378 280.592 47.7277L280.068 50.7827L278.885 50.5798L279.916 44.568C280 44.0782 279.672 43.6126 279.182 43.5285C278.693 43.4446 278.228 43.773 278.143 44.2618L277.111 50.2756L275.928 50.0727L277.128 43.0753C277.213 42.5854 276.884 42.1199 276.394 42.0358Z" fill="#1C2024" stroke="#1C2024" stroke-width="0.2"/>
<path d="M276.411 41.9376C275.866 41.8442 275.35 42.2098 275.256 42.7541L274.073 49.6534L273.087 49.4843L273.932 44.5563C274.026 44.0119 273.66 43.495 273.116 43.4016C272.572 43.3083 272.055 43.6738 271.961 44.2182L270.601 52.1472L268.581 50.0411C268.109 49.5489 267.348 49.5134 266.829 49.9595C266.291 50.4229 266.204 51.2408 266.632 51.8084L270.769 57.2926C270.798 57.3307 270.828 57.3672 270.858 57.402C271.574 58.6522 272.823 59.585 274.354 59.8476L275.339 60.0166C278.061 60.4834 280.646 58.6554 281.112 55.9338L282.465 48.0489C282.558 47.5046 282.193 46.9876 281.648 46.8943C281.104 46.8009 280.587 47.1665 280.494 47.7108L279.986 50.6677L279.001 50.4986L280.015 44.585C280.108 44.0406 279.743 43.5237 279.199 43.4303C278.655 43.337 278.138 43.7016 278.044 44.2449L277.03 50.1605L276.044 49.9915L277.227 43.0922C277.321 42.5479 276.955 42.0309 276.411 41.9376Z" fill="white"/>
<defs>
<filter id="filter0_d_6_451" x="178" y="7.69054" width="205" height="63.8095" filterUnits="userSpaceOnUse" color-interpolation-filters="sRGB">
<feFlood flood-opacity="0" result="BackgroundImageFix"/>
<feColorMatrix in="SourceAlpha" type="matrix" values="0 0 0 0 0 0 0 0 0 0 0 0 0 0 0 0 0 0 127 0" result="hardAlpha"/>
<feOffset dx="1" dy="2"/>
<feGaussianBlur stdDeviation="2"/>
<feComposite in2="hardAlpha" operator="out"/>
<feColorMatrix type="matrix" values="0 0 0 0 0 0 0 0 0 0 0 0 0 0 0 0 0 0 0.21 0"/>
<feBlend mode="normal" in2="BackgroundImageFix" result="effect1_dropShadow_6_451"/>
<feBlend mode="normal" in="SourceGraphic" in2="effect1_dropShadow_6_451" result="shape"/>
</filter>
<linearGradient id="paint0_linear_6_451" x1="109.5" y1="0" x2="109.5" y2="123" gradientUnits="userSpaceOnUse">
<stop offset="0.139423" stop-color="#DAE0E5"/>
<stop offset="1" stop-color="#DAE0E5" stop-opacity="0"/>
</linearGradient>
<linearGradient id="paint1_linear_6_451" x1="389" y1="0" x2="389" y2="123" gradientUnits="userSpaceOnUse">
<stop offset="0.139423" stop-color="#DAE0E5"/>
<stop offset="1" stop-color="#DAE0E5" stop-opacity="0"/>
</linearGradient>
<clipPath id="clip0_6_451">
<rect width="16" height="16" fill="white" transform="translate(12 12)"/>
</clipPath>
<clipPath id="clip1_6_451">
<rect width="16" height="16" fill="white" transform="translate(12 36)"/>
</clipPath>
<clipPath id="clip2_6_451">
<rect width="16" height="16" fill="white" transform="translate(12 60)"/>
</clipPath>
<clipPath id="clip3_6_451">
<rect width="16" height="16" fill="white" transform="translate(12 84)"/>
</clipPath>
<clipPath id="clip4_6_451">
<rect x="185.035" y="9.69054" width="195" height="28" rx="3" transform="rotate(8.28583 185.035 9.69054)" fill="white"/>
</clipPath>
<clipPath id="clip5_6_451">
<rect width="16" height="16" fill="white" transform="translate(190.108 16.4926) rotate(8.28583)"/>
</clipPath>
</defs>
</svg>
