<svg width="525" height="194" viewBox="0 0 525 194" fill="none" xmlns="http://www.w3.org/2000/svg">
<path d="M373 43C379.5 43 396.5 46.5 404.5 58.5C412.5 70.5 423.5 69 439 69" stroke="#A6A7A9"/>
<path d="M431 90.5C414.5 90.5 402.5 116.5 454 120C505.5 123.5 498.5 147 481 147" stroke="#A6A7A9"/>
<path d="M366 85C372.5 85 380.5 106 383.5 114.5C386.5 123 389.5 147 401.5 147" stroke="#A6A7A9"/>
<g filter="url(#filter0_d_2_227)">
<g clip-path="url(#clip0_2_227)">
<rect x="2" y="1" width="375" height="130" rx="6" fill="url(#paint0_linear_2_227)" shape-rendering="crispEdges"/>
<mask id="path-6-inside-1_2_227" fill="white">
<path d="M2 1H377V29H2V1Z"/>
</mask>
<path d="M2 1H377V29H2V1Z" fill="url(#paint1_linear_2_227)"/>
<path d="M377 29V28H2V29V30H377V29Z" fill="#EBEBEB" mask="url(#path-6-inside-1_2_227)"/>
<path d="M17.72 19.192C15.872 19.192 14.66 17.992 14.516 16.252L15.728 16.168C15.896 17.38 16.616 18.076 17.744 18.076C18.86 18.076 19.46 17.62 19.46 16.84C19.46 16.06 19.04 15.64 17.216 15.136C15.44 14.656 14.708 14.044 14.708 12.736C14.708 11.296 15.812 10.288 17.576 10.288C19.316 10.288 20.348 11.44 20.54 13.024L19.328 13.096C19.196 12.112 18.62 11.404 17.552 11.404C16.556 11.404 15.932 11.92 15.932 12.688C15.932 13.456 16.364 13.744 17.864 14.152C19.928 14.704 20.684 15.448 20.684 16.876C20.684 18.232 19.484 19.192 17.72 19.192ZM26.9073 19C25.6233 19 25.0113 18.412 25.0113 17.164V13.612H22.9713V12.616H25.0113V10.972H26.1513V12.616H28.6833V13.612H26.1513V17.128C26.1513 17.728 26.4273 18.004 26.9913 18.004H28.6833V19H26.9073ZM33.5506 19.144C32.3626 19.144 31.4146 18.448 31.4146 17.38C31.4146 16.3 32.0866 15.736 33.4066 15.472L35.4946 15.04C35.4946 14.032 35.0266 13.54 34.1746 13.54C33.3346 13.54 32.9026 13.912 32.7346 14.596L31.5346 14.512C31.7746 13.288 32.7106 12.472 34.1746 12.472C35.7466 12.472 36.6346 13.456 36.6346 15.088V17.608C36.6346 17.908 36.7546 18.004 37.0306 18.004H37.4146V19C37.3186 19.012 37.0786 19.036 36.8626 19.036C36.1426 19.036 35.7106 18.736 35.5786 18.088C35.2426 18.712 34.4626 19.144 33.5506 19.144ZM33.6826 18.148C34.8586 18.148 35.4946 17.488 35.4946 16.492V15.976L33.6586 16.348C32.8906 16.492 32.6146 16.792 32.6146 17.284C32.6146 17.836 32.9986 18.148 33.6826 18.148ZM40.2419 19V18.004H41.8619V13.612H40.2419V12.616H42.7379L42.8219 13.852C43.0379 13.024 43.5539 12.616 44.3579 12.616H45.7139V13.648H44.4179C43.4819 13.648 43.0019 14.176 43.0019 15.184V18.004H44.9939V19H40.2419ZM52.0932 19C50.8092 19 50.1972 18.412 50.1972 17.164V13.612H48.1572V12.616H50.1972V10.972H51.3372V12.616H53.8692V13.612H51.3372V17.128C51.3372 17.728 51.6132 18.004 52.1772 18.004H53.8692V19H52.0932Z" fill="#575961"/>
<g clip-path="url(#clip1_2_227)">
<g clip-path="url(#clip2_2_227)">
<mask id="mask0_2_227" style="mask-type:luminance" maskUnits="userSpaceOnUse" x="359" y="35" width="14" height="16">
<path d="M373 35H359V51H373V35Z" fill="white"/>
</mask>
<g mask="url(#mask0_2_227)">
<path d="M360 37C360 36.4477 360.448 36 361 36H365.564C365.842 36 366.108 36.1158 366.297 36.3196L371.868 42.3196C372.224 42.7032 372.224 43.2968 371.868 43.6805L366.297 49.6805C366.108 49.8842 365.842 50 365.564 50H361C360.448 50 360 49.5523 360 49V37Z" fill="#DADBE7" stroke="#DADBE7"/>
</g>
</g>
<g clip-path="url(#clip3_2_227)">
<g clip-path="url(#clip4_2_227)">
<path d="M38.104 69V60.48H39.136V64.716L42.964 60.48H44.272L40.936 64.176L44.5 69H43.24L40.24 64.944L39.136 66.156V69H38.104ZM47.7105 69.144C45.9105 69.144 44.7945 67.836 44.7945 65.82C44.7945 63.804 45.9105 62.496 47.6625 62.496C49.3185 62.496 50.4705 63.696 50.4705 65.832V66.132H45.8505C45.9225 67.5 46.6065 68.184 47.7105 68.184C48.5385 68.184 49.0785 67.764 49.2945 67.116L50.3745 67.2C50.0385 68.34 49.0545 69.144 47.7105 69.144ZM49.3665 65.244C49.2705 64.02 48.5985 63.456 47.6625 63.456C46.6785 63.456 46.0185 64.068 45.8505 65.244H49.3665ZM51.9704 70.8V69.912H52.7024C53.1464 69.912 53.3264 69.78 53.4464 69.48L53.6744 68.88H53.3264L50.9984 62.64H52.1024L53.9984 67.944L55.8104 62.64H56.9144L54.3344 69.804C54.0944 70.488 53.6504 70.8 52.7984 70.8H51.9704Z" fill="#646464"/>
<path d="M119.952 69V61.488H117.3V60.48H123.636V61.488H120.984V69H119.952ZM124.869 70.8V69.912H125.601C126.045 69.912 126.225 69.78 126.345 69.48L126.573 68.88H126.225L123.897 62.64H125.001L126.897 67.944L128.709 62.64H129.813L127.233 69.804C126.993 70.488 126.549 70.8 125.697 70.8H124.869ZM131.038 70.8V62.64H131.974L131.986 63.612C132.37 62.88 133.078 62.496 133.942 62.496C135.838 62.496 136.69 64.068 136.69 65.82C136.69 67.572 135.838 69.144 133.942 69.144C133.114 69.144 132.382 68.772 132.046 68.16V70.8H131.038ZM133.846 68.184C134.95 68.184 135.634 67.308 135.634 65.82C135.634 64.332 134.95 63.456 133.846 63.456C132.742 63.456 132.046 64.26 132.046 65.82C132.046 67.38 132.73 68.184 133.846 68.184ZM140.671 69.144C138.871 69.144 137.755 67.836 137.755 65.82C137.755 63.804 138.871 62.496 140.623 62.496C142.279 62.496 143.431 63.696 143.431 65.832V66.132H138.811C138.883 67.5 139.567 68.184 140.671 68.184C141.499 68.184 142.039 67.764 142.255 67.116L143.335 67.2C142.999 68.34 142.015 69.144 140.671 69.144ZM142.327 65.244C142.231 64.02 141.559 63.456 140.623 63.456C139.639 63.456 138.979 64.068 138.811 65.244H142.327Z" fill="#646464"/>
<path d="M198.104 69V60.48H200.744C203.36 60.48 204.836 62.016 204.836 64.752C204.836 67.476 203.396 69 200.816 69H198.104ZM200.744 67.992C202.748 67.992 203.756 66.912 203.756 64.752C203.756 62.568 202.748 61.488 200.744 61.488H199.136V67.992H200.744ZM208.906 69.144C207.106 69.144 205.99 67.836 205.99 65.82C205.99 63.804 207.106 62.496 208.858 62.496C210.514 62.496 211.666 63.696 211.666 65.832V66.132H207.046C207.118 67.5 207.802 68.184 208.906 68.184C209.734 68.184 210.274 67.764 210.49 67.116L211.57 67.2C211.234 68.34 210.25 69.144 208.906 69.144ZM210.562 65.244C210.466 64.02 209.794 63.456 208.858 63.456C207.874 63.456 207.214 64.068 207.046 65.244H210.562ZM213.584 62.064C213.584 61.128 214.112 60.48 215.264 60.48H216.272V61.368H215.336C214.832 61.368 214.592 61.656 214.592 62.136V62.64H216.188V63.528H214.592V69H213.584V63.528H212.72V62.64H213.584V62.064ZM219.259 69.144C217.939 69.144 217.111 68.508 217.111 67.416C217.111 66.336 217.723 65.736 219.115 65.472L221.371 65.052C221.371 63.984 220.867 63.456 219.859 63.456C218.971 63.456 218.479 63.864 218.287 64.596L217.219 64.512C217.459 63.312 218.419 62.496 219.859 62.496C221.491 62.496 222.379 63.48 222.379 65.088V67.716C222.379 68.004 222.475 68.112 222.715 68.112H222.967V69C222.895 69.012 222.739 69.024 222.583 69.024C221.815 69.024 221.467 68.724 221.383 68.016C221.071 68.676 220.195 69.144 219.259 69.144ZM219.355 68.256C220.627 68.256 221.371 67.44 221.371 66.384V65.928L219.307 66.312C218.443 66.468 218.167 66.792 218.167 67.32C218.167 67.92 218.611 68.256 219.355 68.256ZM226.321 69.144C225.049 69.144 224.233 68.244 224.233 66.732V62.64H225.241V66.456C225.241 67.692 225.673 68.256 226.585 68.256C227.593 68.256 228.205 67.572 228.205 66.432V62.64H229.213V69H228.253V67.968C227.905 68.724 227.233 69.144 226.321 69.144ZM232.396 69C231.652 69 231.136 68.64 231.136 67.8L231.148 60.48H232.156V67.716C232.156 67.98 232.288 68.112 232.552 68.112H233.104V69H232.396ZM236.276 69C235.124 69 234.584 68.496 234.584 67.368V63.528H233.648V62.64H234.584V61.152H235.592V62.64H237.284V63.528H235.592V67.344C235.592 67.92 235.844 68.112 236.372 68.112H237.284V69H236.276Z" fill="#646464"/>
<path d="M279.952 69V61.488H277.3V60.48H283.636V61.488H280.984V69H279.952ZM286.574 69.144C284.774 69.144 283.658 67.836 283.658 65.82C283.658 63.804 284.774 62.496 286.526 62.496C288.182 62.496 289.334 63.696 289.334 65.832V66.132H284.714C284.786 67.5 285.47 68.184 286.574 68.184C287.402 68.184 287.942 67.764 288.158 67.116L289.238 67.2C288.902 68.34 287.918 69.144 286.574 69.144ZM288.23 65.244C288.134 64.02 287.462 63.456 286.526 63.456C285.542 63.456 284.882 64.068 284.714 65.244H288.23ZM293.156 69.144C291.452 69.144 290.504 68.244 290.408 66.996L291.464 66.924C291.584 67.692 292.076 68.184 293.156 68.184C294.02 68.184 294.584 67.92 294.584 67.296C294.584 66.792 294.332 66.576 292.964 66.336C291.14 66.012 290.564 65.448 290.564 64.44C290.564 63.312 291.428 62.496 292.964 62.496C294.512 62.496 295.328 63.432 295.52 64.536L294.464 64.608C294.32 63.936 293.816 63.456 292.952 63.456C292.04 63.456 291.62 63.852 291.62 64.392C291.62 65.016 292.028 65.256 293.156 65.448C295.1 65.784 295.64 66.288 295.64 67.296C295.64 68.472 294.56 69.144 293.156 69.144ZM299.132 69C297.98 69 297.44 68.496 297.44 67.368V63.528H296.504V62.64H297.44V61.152H298.448V62.64H300.14V63.528H298.448V67.344C298.448 67.92 298.7 68.112 299.228 68.112H300.14V69H299.132ZM306.914 69L303.83 60.48H304.958L307.598 67.872L310.226 60.48H311.354L308.27 69H306.914ZM313.778 69.144C312.458 69.144 311.63 68.508 311.63 67.416C311.63 66.336 312.242 65.736 313.634 65.472L315.89 65.052C315.89 63.984 315.386 63.456 314.378 63.456C313.49 63.456 312.998 63.864 312.806 64.596L311.738 64.512C311.978 63.312 312.938 62.496 314.378 62.496C316.01 62.496 316.898 63.48 316.898 65.088V67.716C316.898 68.004 316.994 68.112 317.234 68.112H317.486V69C317.414 69.012 317.258 69.024 317.102 69.024C316.334 69.024 315.986 68.724 315.902 68.016C315.59 68.676 314.714 69.144 313.778 69.144ZM313.874 68.256C315.146 68.256 315.89 67.44 315.89 66.384V65.928L313.826 66.312C312.962 66.468 312.686 66.792 312.686 67.32C312.686 67.92 313.13 68.256 313.874 68.256ZM320.013 69C319.269 69 318.753 68.64 318.753 67.8L318.765 60.48H319.773V67.716C319.773 67.98 319.905 68.112 320.169 68.112H320.721V69H320.013ZM324.134 69.144C322.862 69.144 322.046 68.244 322.046 66.732V62.64H323.054V66.456C323.054 67.692 323.486 68.256 324.398 68.256C325.406 68.256 326.018 67.572 326.018 66.432V62.64H327.026V69H326.066V67.968C325.718 68.724 325.046 69.144 324.134 69.144ZM331.293 69.144C329.493 69.144 328.377 67.836 328.377 65.82C328.377 63.804 329.493 62.496 331.245 62.496C332.901 62.496 334.053 63.696 334.053 65.832V66.132H329.433C329.505 67.5 330.189 68.184 331.293 68.184C332.121 68.184 332.661 67.764 332.877 67.116L333.957 67.2C333.621 68.34 332.637 69.144 331.293 69.144ZM332.949 65.244C332.853 64.02 332.181 63.456 331.245 63.456C330.261 63.456 329.601 64.068 329.433 65.244H332.949Z" fill="#646464"/>
</g>
<path d="M22.8962 83.6538C22.6912 83.4487 22.3588 83.4487 22.1538 83.6538C21.9487 83.8588 21.9487 84.1912 22.1538 84.3962L24.7575 87L22.1538 89.6038C21.9487 89.8088 21.9487 90.1412 22.1538 90.3462C22.3588 90.5513 22.6912 90.5513 22.8962 90.3462L25.5 87.7425L28.1038 90.3462C28.3088 90.5513 28.6412 90.5513 28.8462 90.3462C29.0513 90.1412 29.0513 89.8088 28.8462 89.6038L26.2425 87L28.8462 84.3962C29.0513 84.1912 29.0513 83.8588 28.8462 83.6538C28.6412 83.4487 28.3088 83.4487 28.1038 83.6538L25.5 86.2575L22.8962 83.6538Z" fill="#707070"/>
<rect x="39.5" y="77.5" width="69" height="19" rx="2.5" stroke="#D0D0D0"/>
<path d="M46.712 91.144C45.392 91.144 44.564 90.508 44.564 89.416C44.564 88.336 45.176 87.736 46.568 87.472L48.824 87.052C48.824 85.984 48.32 85.456 47.312 85.456C46.424 85.456 45.932 85.864 45.74 86.596L44.672 86.512C44.912 85.312 45.872 84.496 47.312 84.496C48.944 84.496 49.832 85.48 49.832 87.088V89.716C49.832 90.004 49.928 90.112 50.168 90.112H50.42V91C50.348 91.012 50.192 91.024 50.036 91.024C49.268 91.024 48.92 90.724 48.836 90.016C48.524 90.676 47.648 91.144 46.712 91.144ZM46.808 90.256C48.08 90.256 48.824 89.44 48.824 88.384V87.928L46.76 88.312C45.896 88.468 45.62 88.792 45.62 89.32C45.62 89.92 46.064 90.256 46.808 90.256ZM54.1346 92.944C52.7666 92.944 51.7346 92.212 51.4706 91.096L52.5266 91.024C52.7186 91.624 53.1506 91.984 54.1346 91.984C55.2866 91.984 55.9226 91.528 55.9226 90.592V89.56C55.6106 90.232 54.8906 90.664 54.0626 90.664C52.4426 90.664 51.2906 89.392 51.2906 87.58C51.2906 85.768 52.4186 84.496 54.0146 84.496C54.9026 84.496 55.6826 84.94 55.9706 85.648V84.64H56.9306V90.568C56.9306 92.056 55.8866 92.944 54.1346 92.944ZM54.1106 89.704C55.2026 89.704 55.9106 88.888 55.9226 87.58C55.9466 86.272 55.2146 85.456 54.1106 85.456C52.9946 85.456 52.3466 86.272 52.3466 87.58C52.3466 88.888 53.0186 89.704 54.1106 89.704ZM61.1909 91.144C59.3909 91.144 58.2749 89.836 58.2749 87.82C58.2749 85.804 59.3909 84.496 61.1429 84.496C62.7989 84.496 63.9509 85.696 63.9509 87.832V88.132H59.3309C59.4029 89.5 60.0869 90.184 61.1909 90.184C62.0189 90.184 62.5589 89.764 62.7749 89.116L63.8549 89.2C63.5189 90.34 62.5349 91.144 61.1909 91.144ZM62.8469 87.244C62.7509 86.02 62.0789 85.456 61.1429 85.456C60.1589 85.456 59.4989 86.068 59.3309 87.244H62.8469Z" fill="#1F2022"/>
<rect x="119.5" y="77.5" width="69" height="19" rx="2.5" stroke="#D0D0D0"/>
<path d="M125.104 91V82.48H126.568L130.78 89.968V82.48H131.812V91H130.276L126.136 83.656V91H125.104ZM135.732 91.144C134.46 91.144 133.644 90.244 133.644 88.732V84.64H134.652V88.456C134.652 89.692 135.084 90.256 135.996 90.256C137.004 90.256 137.616 89.572 137.616 88.432V84.64H138.624V91H137.664V89.968C137.316 90.724 136.644 91.144 135.732 91.144ZM140.546 91V84.64H141.47L141.494 85.756C141.806 84.976 142.466 84.496 143.282 84.496C144.242 84.496 144.914 84.976 145.19 85.828C145.466 84.976 146.114 84.496 147.05 84.496C148.406 84.496 149.15 85.372 149.15 86.908V91H148.142V87.124C148.142 85.972 147.686 85.384 146.81 85.384C145.922 85.384 145.346 86.056 145.346 87.196V91H144.338V87.196C144.338 86.068 143.966 85.384 143.03 85.384C142.142 85.384 141.554 86.068 141.554 87.196V91H140.546ZM153.985 91.144C153.097 91.144 152.377 90.736 152.017 90.04L151.981 91H151.069V82.48H152.077V85.528C152.389 85 153.097 84.496 153.985 84.496C155.665 84.496 156.721 85.78 156.721 87.82C156.721 89.86 155.665 91.144 153.985 91.144ZM153.925 90.184C154.993 90.184 155.665 89.272 155.665 87.82C155.665 86.344 154.993 85.456 153.949 85.456C152.773 85.456 152.077 86.344 152.077 87.82C152.077 89.272 152.773 90.184 153.925 90.184ZM160.703 91.144C158.903 91.144 157.787 89.836 157.787 87.82C157.787 85.804 158.903 84.496 160.655 84.496C162.311 84.496 163.463 85.696 163.463 87.832V88.132H158.843C158.915 89.5 159.599 90.184 160.703 90.184C161.531 90.184 162.071 89.764 162.287 89.116L163.367 89.2C163.031 90.34 162.047 91.144 160.703 91.144ZM162.359 87.244C162.263 86.02 161.591 85.456 160.655 85.456C159.671 85.456 159.011 86.068 158.843 87.244H162.359ZM164.933 91V84.64H165.821L165.857 85.816C166.085 85.012 166.589 84.64 167.369 84.64H167.993V85.6H167.381C166.421 85.6 165.941 86.116 165.941 87.16V91H164.933Z" fill="#1F2022"/>
<path fill-rule="evenodd" clip-rule="evenodd" d="M180.743 88.9618C180.609 89.0961 180.391 89.0961 180.257 88.9618L176.819 85.5243C176.685 85.3901 176.685 85.1724 176.819 85.0382C176.954 84.9039 177.171 84.9039 177.306 85.0382L180.5 88.2326L183.694 85.0382C183.829 84.9039 184.046 84.9039 184.181 85.0382C184.315 85.1724 184.315 85.3901 184.181 85.5243L180.743 88.9618Z" fill="#0F172A"/>
<rect x="199.5" y="77.5" width="69" height="19" rx="2.5" stroke="#D0D0D0"/>
<rect x="279.5" y="77.5" width="69" height="19" rx="2.5" stroke="#D0D0D0"/>
<rect x="361.75" y="81.75" width="6.5" height="6.5" rx="3.25" fill="#F53134"/>
<rect x="361.75" y="81.75" width="6.5" height="6.5" rx="3.25" stroke="#F53134" stroke-width="1.5"/>
</g>
<path d="M307.252 121L310.324 112.48H311.716L314.788 121H313.66L312.808 118.576H309.232L308.38 121H307.252ZM309.58 117.568H312.46L311.02 113.38L309.58 117.568ZM318.115 121.144C316.459 121.144 315.427 119.86 315.427 117.82C315.427 115.78 316.459 114.496 318.115 114.496C318.967 114.496 319.723 114.88 320.071 115.528V112.48H321.079V121H320.167L320.131 120.04C319.771 120.736 319.003 121.144 318.115 121.144ZM318.319 120.184C319.447 120.184 320.071 119.272 320.071 117.82C320.071 116.344 319.447 115.456 318.319 115.456C317.203 115.456 316.483 116.344 316.483 117.82C316.483 119.272 317.203 120.184 318.319 120.184ZM325.287 121.144C323.631 121.144 322.599 119.86 322.599 117.82C322.599 115.78 323.631 114.496 325.287 114.496C326.139 114.496 326.895 114.88 327.243 115.528V112.48H328.251V121H327.339L327.303 120.04C326.943 120.736 326.175 121.144 325.287 121.144ZM325.491 120.184C326.619 120.184 327.243 119.272 327.243 117.82C327.243 116.344 326.619 115.456 325.491 115.456C324.375 115.456 323.655 116.344 323.655 117.82C323.655 119.272 324.375 120.184 325.491 120.184ZM333.311 121V112.48H334.343V121H333.311ZM336.226 121V114.64H337.15L337.174 115.78C337.51 114.904 338.254 114.496 339.13 114.496C340.582 114.496 341.278 115.564 341.278 116.908V121H340.27V117.196C340.27 116.02 339.874 115.384 338.914 115.384C337.93 115.384 337.234 116.02 337.234 117.196V121H336.226ZM342.964 122.8V114.64H343.9L343.912 115.612C344.296 114.88 345.004 114.496 345.868 114.496C347.764 114.496 348.616 116.068 348.616 117.82C348.616 119.572 347.764 121.144 345.868 121.144C345.04 121.144 344.308 120.772 343.972 120.16V122.8H342.964ZM345.772 120.184C346.876 120.184 347.56 119.308 347.56 117.82C347.56 116.332 346.876 115.456 345.772 115.456C344.668 115.456 343.972 116.26 343.972 117.82C343.972 119.38 344.656 120.184 345.772 120.184ZM352.107 121.144C350.835 121.144 350.019 120.244 350.019 118.732V114.64H351.027V118.456C351.027 119.692 351.459 120.256 352.371 120.256C353.379 120.256 353.991 119.572 353.991 118.432V114.64H354.999V121H354.039V119.968C353.691 120.724 353.019 121.144 352.107 121.144ZM359.026 121C357.874 121 357.334 120.496 357.334 119.368V115.528H356.398V114.64H357.334V113.152H358.342V114.64H360.034V115.528H358.342V119.344C358.342 119.92 358.594 120.112 359.122 120.112H360.034V121H359.026Z" fill="#6B7280"/>
<path d="M369.156 114.156C369.156 113.794 368.862 113.5 368.5 113.5C368.138 113.5 367.844 113.794 367.844 114.156V116.344H365.656C365.294 116.344 365 116.638 365 117C365 117.362 365.294 117.656 365.656 117.656L367.844 117.656V119.844C367.844 120.206 368.138 120.5 368.5 120.5C368.862 120.5 369.156 120.206 369.156 119.844V117.656L371.344 117.656C371.706 117.656 372 117.362 372 117C372 116.638 371.706 116.344 371.344 116.344H369.156V114.156Z" fill="#8C93A0"/>
</g>
</g>
<rect x="2.5" y="1.5" width="374" height="129" rx="5.5" stroke="#E9E9EA" shape-rendering="crispEdges"/>
</g>
<g filter="url(#filter1_d_2_227)">
<g clip-path="url(#clip5_2_227)">
<rect x="423" y="26" width="100" height="78" rx="6" fill="url(#paint2_linear_2_227)" shape-rendering="crispEdges"/>
<mask id="path-29-inside-2_2_227" fill="white">
<path d="M423 26H523V54H423V26Z"/>
</mask>
<path d="M423 26H523V54H423V26Z" fill="white"/>
<path d="M523 54V53H423V54V55H523V54Z" fill="#EBEBEB" mask="url(#path-29-inside-2_2_227)"/>
<path d="M435.936 44V42.896H438.012V36.584H435.936V35.48H441.264V36.584H439.188V42.896H441.264V44H435.936ZM446.107 37.28C446.107 36.092 446.683 35.48 447.931 35.48H449.779V36.476H447.979C447.487 36.476 447.247 36.776 447.247 37.292V37.616H449.683V38.612H447.247V44H446.107V38.612H444.211V37.616H446.107V37.28Z" fill="#403D3D"/>
<g clip-path="url(#clip6_2_227)">
<g clip-path="url(#clip7_2_227)">
<mask id="mask1_2_227" style="mask-type:luminance" maskUnits="userSpaceOnUse" x="427" y="60" width="14" height="16">
<path d="M441 60H427V76H441V60Z" fill="white"/>
</mask>
<g mask="url(#mask1_2_227)">
<path d="M428 62C428 61.4477 428.448 61 429 61H433.564C433.842 61 434.108 61.1158 434.297 61.3196L439.868 67.3196C440.224 67.7032 440.224 68.2968 439.868 68.6805L434.297 74.6805C434.108 74.8842 433.842 75 433.564 75H429C428.448 75 428 74.5523 428 74V62Z" fill="#DADBE7" stroke="#DADBE7"/>
</g>
</g>
<rect x="427.75" y="87.75" width="6.5" height="6.5" rx="3.25" fill="#1196FF"/>
<rect x="427.75" y="87.75" width="6.5" height="6.5" rx="3.25" stroke="#1196FF" stroke-width="1.5"/>
</g>
<g clip-path="url(#clip8_2_227)">
<path d="M478.952 72V64.488H476.3V63.48H482.636V64.488H479.984V72H478.952ZM483.663 72V65.64H484.551L484.587 66.816C484.815 66.012 485.319 65.64 486.099 65.64H486.723V66.6H486.111C485.151 66.6 484.671 67.116 484.671 68.16V72H483.663ZM490.333 72.144C489.061 72.144 488.245 71.244 488.245 69.732V65.64H489.253V69.456C489.253 70.692 489.685 71.256 490.597 71.256C491.605 71.256 492.217 70.572 492.217 69.432V65.64H493.225V72H492.265V70.968C491.917 71.724 491.245 72.144 490.333 72.144ZM497.492 72.144C495.692 72.144 494.576 70.836 494.576 68.82C494.576 66.804 495.692 65.496 497.444 65.496C499.1 65.496 500.252 66.696 500.252 68.832V69.132H495.632C495.704 70.5 496.388 71.184 497.492 71.184C498.32 71.184 498.86 70.764 499.076 70.116L500.156 70.2C499.82 71.34 498.836 72.144 497.492 72.144ZM499.148 68.244C499.052 67.02 498.38 66.456 497.444 66.456C496.46 66.456 495.8 67.068 495.632 68.244H499.148Z" fill="#42444E"/>
<g clip-path="url(#clip9_2_227)">
<mask id="mask2_2_227" style="mask-type:luminance" maskUnits="userSpaceOnUse" x="505" y="60" width="14" height="16">
<path d="M519 60H505V76H519V60Z" fill="white"/>
</mask>
<g mask="url(#mask2_2_227)">
<path d="M506 62C506 61.4477 506.448 61 507 61H511.564C511.842 61 512.108 61.1158 512.297 61.3196L517.868 67.3196C518.224 67.7032 518.224 68.2968 517.868 68.6805L512.297 74.6805C512.108 74.8842 511.842 75 511.564 75H507C506.448 75 506 74.5523 506 74V62Z" stroke="#DADBE7"/>
</g>
</g>
<path d="M471.104 94V85.48H476.456V86.488H472.136V89.344H476.24V90.328H472.136V94H471.104ZM479.79 94.144C478.47 94.144 477.642 93.508 477.642 92.416C477.642 91.336 478.254 90.736 479.646 90.472L481.902 90.052C481.902 88.984 481.398 88.456 480.39 88.456C479.502 88.456 479.01 88.864 478.818 89.596L477.75 89.512C477.99 88.312 478.95 87.496 480.39 87.496C482.022 87.496 482.91 88.48 482.91 90.088V92.716C482.91 93.004 483.006 93.112 483.246 93.112H483.498V94C483.426 94.012 483.27 94.024 483.114 94.024C482.346 94.024 481.998 93.724 481.914 93.016C481.602 93.676 480.726 94.144 479.79 94.144ZM479.886 93.256C481.158 93.256 481.902 92.44 481.902 91.384V90.928L479.838 91.312C478.974 91.468 478.698 91.792 478.698 92.32C478.698 92.92 479.142 93.256 479.886 93.256ZM486.025 94C485.281 94 484.765 93.64 484.765 92.8L484.777 85.48H485.785V92.716C485.785 92.98 485.917 93.112 486.181 93.112H486.733V94H486.025ZM490.41 94.144C488.706 94.144 487.758 93.244 487.662 91.996L488.718 91.924C488.838 92.692 489.33 93.184 490.41 93.184C491.274 93.184 491.838 92.92 491.838 92.296C491.838 91.792 491.586 91.576 490.218 91.336C488.394 91.012 487.818 90.448 487.818 89.44C487.818 88.312 488.682 87.496 490.218 87.496C491.766 87.496 492.582 88.432 492.774 89.536L491.718 89.608C491.574 88.936 491.07 88.456 490.206 88.456C489.294 88.456 488.874 88.852 488.874 89.392C488.874 90.016 489.282 90.256 490.41 90.448C492.354 90.784 492.894 91.288 492.894 92.296C492.894 93.472 491.814 94.144 490.41 94.144ZM496.882 94.144C495.082 94.144 493.966 92.836 493.966 90.82C493.966 88.804 495.082 87.496 496.834 87.496C498.49 87.496 499.642 88.696 499.642 90.832V91.132H495.022C495.094 92.5 495.778 93.184 496.882 93.184C497.71 93.184 498.25 92.764 498.466 92.116L499.546 92.2C499.21 93.34 498.226 94.144 496.882 94.144ZM498.538 90.244C498.442 89.02 497.77 88.456 496.834 88.456C495.85 88.456 495.19 89.068 495.022 90.244H498.538Z" fill="#42444E"/>
<g clip-path="url(#clip10_2_227)">
<mask id="mask3_2_227" style="mask-type:luminance" maskUnits="userSpaceOnUse" x="505" y="82" width="14" height="16">
<path d="M519 82H505V98H519V82Z" fill="white"/>
</mask>
<g mask="url(#mask3_2_227)">
<path d="M506 84C506 83.4477 506.448 83 507 83H511.564C511.842 83 512.108 83.1158 512.297 83.3196L517.868 89.3196C518.224 89.7032 518.224 90.2968 517.868 90.6805L512.297 96.6805C512.108 96.8842 511.842 97 511.564 97H507C506.448 97 506 96.5523 506 96V84Z" stroke="#DADBE7"/>
</g>
</g>
</g>
</g>
<rect x="423.5" y="26.5" width="99" height="77" rx="5.5" stroke="#E9E9EA" shape-rendering="crispEdges"/>
</g>
<g filter="url(#filter2_d_2_227)">
<g clip-path="url(#clip11_2_227)">
<rect x="391" y="131" width="100" height="60" rx="6" fill="url(#paint3_linear_2_227)" shape-rendering="crispEdges"/>
<g clip-path="url(#clip12_2_227)">
<rect x="397.75" y="143.75" width="6.5" height="6.5" rx="3.25" fill="#F53134"/>
<rect x="397.75" y="143.75" width="6.5" height="6.5" rx="3.25" stroke="#F53134" stroke-width="1.5"/>
<rect x="397.75" y="171.75" width="6.5" height="6.5" rx="3.25" stroke="#F53134" stroke-width="1.5"/>
<rect x="408.5" y="165.5" width="21" height="19" rx="1.5" stroke="#D0D0D0"/>
<path d="M415.256 179V172.688H413.48V171.8H414.2C415.136 171.8 415.472 171.488 415.472 170.48H416.288V179H415.256ZM421.229 179.192C419.393 179.192 418.085 178.316 418.085 176.66C418.085 175.556 418.721 174.776 419.729 174.416C418.973 174.104 418.493 173.54 418.493 172.628C418.493 171.284 419.573 170.288 421.229 170.288C422.885 170.288 423.965 171.284 423.965 172.628C423.965 173.54 423.485 174.104 422.729 174.416C423.737 174.776 424.373 175.556 424.373 176.66C424.373 178.316 423.065 179.192 421.229 179.192ZM421.229 178.184C422.489 178.184 423.293 177.68 423.293 176.6C423.293 175.604 422.645 174.956 421.229 174.956C419.813 174.956 419.165 175.604 419.165 176.6C419.165 177.68 419.969 178.184 421.229 178.184ZM421.229 173.996C422.285 173.996 422.885 173.54 422.885 172.628C422.885 171.812 422.309 171.296 421.229 171.296C420.149 171.296 419.573 171.812 419.573 172.628C419.573 173.54 420.173 173.996 421.229 173.996Z" fill="#1F2022"/>
</g>
<g clip-path="url(#clip13_2_227)">
<rect x="477.75" y="143.75" width="6.5" height="6.5" rx="3.25" fill="#1196FF"/>
<rect x="477.75" y="143.75" width="6.5" height="6.5" rx="3.25" stroke="#1196FF" stroke-width="1.5"/>
</g>
<path d="M450.85 171.425L430.105 162.65V155.225L450.85 146.45V152.255L435.055 158.915L450.85 165.575V171.425Z" fill="#AEB5C3" fill-opacity="0.29"/>
</g>
<rect x="391.5" y="131.5" width="99" height="59" rx="5.5" stroke="#E9E9EA" shape-rendering="crispEdges"/>
</g>
<defs>
<filter id="filter0_d_2_227" x="0" y="0" width="379" height="134" filterUnits="userSpaceOnUse" color-interpolation-filters="sRGB">
<feFlood flood-opacity="0" result="BackgroundImageFix"/>
<feColorMatrix in="SourceAlpha" type="matrix" values="0 0 0 0 0 0 0 0 0 0 0 0 0 0 0 0 0 0 127 0" result="hardAlpha"/>
<feOffset dy="1"/>
<feGaussianBlur stdDeviation="1"/>
<feComposite in2="hardAlpha" operator="out"/>
<feColorMatrix type="matrix" values="0 0 0 0 0 0 0 0 0 0 0 0 0 0 0 0 0 0 0.2 0"/>
<feBlend mode="normal" in2="BackgroundImageFix" result="effect1_dropShadow_2_227"/>
<feBlend mode="normal" in="SourceGraphic" in2="effect1_dropShadow_2_227" result="shape"/>
</filter>
<filter id="filter1_d_2_227" x="421" y="25" width="104" height="82" filterUnits="userSpaceOnUse" color-interpolation-filters="sRGB">
<feFlood flood-opacity="0" result="BackgroundImageFix"/>
<feColorMatrix in="SourceAlpha" type="matrix" values="0 0 0 0 0 0 0 0 0 0 0 0 0 0 0 0 0 0 127 0" result="hardAlpha"/>
<feOffset dy="1"/>
<feGaussianBlur stdDeviation="1"/>
<feComposite in2="hardAlpha" operator="out"/>
<feColorMatrix type="matrix" values="0 0 0 0 0 0 0 0 0 0 0 0 0 0 0 0 0 0 0.2 0"/>
<feBlend mode="normal" in2="BackgroundImageFix" result="effect1_dropShadow_2_227"/>
<feBlend mode="normal" in="SourceGraphic" in2="effect1_dropShadow_2_227" result="shape"/>
</filter>
<filter id="filter2_d_2_227" x="389" y="130" width="104" height="64" filterUnits="userSpaceOnUse" color-interpolation-filters="sRGB">
<feFlood flood-opacity="0" result="BackgroundImageFix"/>
<feColorMatrix in="SourceAlpha" type="matrix" values="0 0 0 0 0 0 0 0 0 0 0 0 0 0 0 0 0 0 127 0" result="hardAlpha"/>
<feOffset dy="1"/>
<feGaussianBlur stdDeviation="1"/>
<feComposite in2="hardAlpha" operator="out"/>
<feColorMatrix type="matrix" values="0 0 0 0 0 0 0 0 0 0 0 0 0 0 0 0 0 0 0.2 0"/>
<feBlend mode="normal" in2="BackgroundImageFix" result="effect1_dropShadow_2_227"/>
<feBlend mode="normal" in="SourceGraphic" in2="effect1_dropShadow_2_227" result="shape"/>
</filter>
<linearGradient id="paint0_linear_2_227" x1="189.5" y1="1" x2="189.5" y2="131" gradientUnits="userSpaceOnUse">
<stop stop-color="white"/>
<stop offset="0.125" stop-color="white"/>
<stop offset="1" stop-color="white" stop-opacity="0.9"/>
</linearGradient>
<linearGradient id="paint1_linear_2_227" x1="2" y1="15" x2="377" y2="15" gradientUnits="userSpaceOnUse">
<stop stop-color="#FFFEFF"/>
<stop offset="1" stop-color="#D2FADE"/>
</linearGradient>
<linearGradient id="paint2_linear_2_227" x1="473" y1="26" x2="473" y2="104" gradientUnits="userSpaceOnUse">
<stop stop-color="white"/>
<stop offset="0.125" stop-color="white"/>
<stop offset="1" stop-color="white" stop-opacity="0.9"/>
</linearGradient>
<linearGradient id="paint3_linear_2_227" x1="441" y1="131" x2="441" y2="191" gradientUnits="userSpaceOnUse">
<stop stop-color="white"/>
<stop offset="0.0480769" stop-color="white"/>
<stop offset="1" stop-color="white" stop-opacity="0.9"/>
</linearGradient>
<clipPath id="clip0_2_227">
<rect x="2" y="1" width="375" height="130" rx="6" fill="white"/>
</clipPath>
<clipPath id="clip1_2_227">
<rect width="351" height="90" fill="white" transform="translate(22 35)"/>
</clipPath>
<clipPath id="clip2_2_227">
<rect width="14" height="16" fill="white" transform="translate(359 35)"/>
</clipPath>
<clipPath id="clip3_2_227">
<rect width="351" height="40" fill="white" transform="translate(22 57)"/>
</clipPath>
<clipPath id="clip4_2_227">
<rect width="336" height="16" fill="white" transform="translate(37 57)"/>
</clipPath>
<clipPath id="clip5_2_227">
<rect x="423" y="26" width="100" height="78" rx="6" fill="white"/>
</clipPath>
<clipPath id="clip6_2_227">
<rect width="21" height="36" fill="white" transform="translate(427 60)"/>
</clipPath>
<clipPath id="clip7_2_227">
<rect width="14" height="16" fill="white" transform="translate(427 60)"/>
</clipPath>
<clipPath id="clip8_2_227">
<rect width="49" height="38" fill="white" transform="translate(470 60)"/>
</clipPath>
<clipPath id="clip9_2_227">
<rect width="14" height="16" fill="white" transform="translate(505 60)"/>
</clipPath>
<clipPath id="clip10_2_227">
<rect width="14" height="16" fill="white" transform="translate(505 82)"/>
</clipPath>
<clipPath id="clip11_2_227">
<rect x="391" y="131" width="100" height="60" rx="6" fill="white"/>
</clipPath>
<clipPath id="clip12_2_227">
<rect width="33" height="48" fill="white" transform="translate(397 137)"/>
</clipPath>
<clipPath id="clip13_2_227">
<rect width="8" height="20" fill="white" transform="translate(477 137)"/>
</clipPath>
</defs>
</svg>
